<?xml version="1.0" encoding="UTF-8" standalone="no"?>
<svg
   xmlns:dc="http://purl.org/dc/elements/1.1/"
   xmlns:cc="http://creativecommons.org/ns#"
   xmlns:rdf="http://www.w3.org/1999/02/22-rdf-syntax-ns#"
   xmlns:svg="http://www.w3.org/2000/svg"
   xmlns="http://www.w3.org/2000/svg"
   xmlns:sodipodi="http://sodipodi.sourceforge.net/DTD/sodipodi-0.dtd"
   xmlns:inkscape="http://www.inkscape.org/namespaces/inkscape"
   viewBox="0 0 480.00002 160"
   version="1.1"
   id="svg10"
   sodipodi:docname="jgns-iy-logo-es.svg"
   width="480"
   height="160"
   inkscape:version="1.0 (4035a4f, 2020-05-01)">
  <metadata
     id="metadata14">
    <rdf:RDF>
      <cc:Work
         rdf:about="">
        <dc:format>image/svg+xml</dc:format>
        <dc:type
           rdf:resource="http://purl.org/dc/dcmitype/StillImage" />
        <dc:title></dc:title>
      </cc:Work>
    </rdf:RDF>
  </metadata>
  <sodipodi:namedview
     inkscape:document-rotation="0"
     pagecolor="#aca9ea"
     bordercolor="#666666"
     borderopacity="1"
     objecttolerance="10"
     gridtolerance="10"
     guidetolerance="10"
     inkscape:pageopacity="0"
     inkscape:pageshadow="2"
     inkscape:window-width="3440"
     inkscape:window-height="1376"
     id="namedview12"
     showgrid="false"
     inkscape:zoom="3.095073"
     inkscape:cx="230.09494"
     inkscape:cy="68.992902"
     inkscape:window-x="0"
     inkscape:window-y="40"
     inkscape:window-maximized="1"
     inkscape:current-layer="g1415"
     inkscape:pagecheckerboard="false" />
  <defs
     id="defs4">
    <style
       id="style2">.cls-1{fill:#fff;}</style>
    <style
       id="style1184">.cls-1{fill:#fff;}</style>
  </defs>
  <g
     id="g849"
     transform="translate(103.8062,4.9600007)">
    <g
       id="g1415">
      <g
         transform="translate(-57.21018,-17.970025)"
         id="g1164">
        <g
           transform="matrix(0.77725676,0,0,0.77725676,179.36631,26.887386)"
           data-name="Layer 2"
           id="Layer_2"
           style="fill:#ffffff">
          <g
             data-name="Capa 1"
             id="Capa_1"
             style="fill:#ffffff">
            <g
               id="g1370">
              <path
                 style="fill:#ffffff"
                 class="cls-1"
                 d="m 5.61,123.94 4.57,-3 a 0.54,0.54 0 0 0 0.24,-0.44 V 30.73 A 0.54,0.54 0 0 0 9.59,30.28 L 5,33.33 a 0.54,0.54 0 0 0 -0.24,0.45 v 89.71 a 0.54,0.54 0 0 0 0.85,0.45 z M 155,67.29 l -4.57,3 a 0.51,0.51 0 0 0 -0.24,0.44 v 37.67 a 0.53,0.53 0 0 0 0.83,0.44 l 4.57,-3 a 0.51,0.51 0 0 0 0.24,-0.44 V 67.73 A 0.53,0.53 0 0 0 155,67.29 Z M 189.77,54 l 3,-4.57 A 0.53,0.53 0 0 0 192.33,48.6 H 141.09 V 0.53 a 0.53,0.53 0 0 0 -0.82,-0.44 l -4.58,3.05 a 0.54,0.54 0 0 0 -0.23,0.44 v 45 h -48.1 a 0.54,0.54 0 0 0 -0.45,0.24 l -3,4.57 a 0.53,0.53 0 0 0 0.44,0.83 h 51.15 v 91.66 a 0.54,0.54 0 0 0 0.83,0.45 l 4.57,-3.05 a 0.53,0.53 0 0 0 0.23,-0.44 V 54.2 h 48.23 a 0.54,0.54 0 0 0 0.41,-0.2 z m 78.12,44.13 a 18.42,18.42 0 1 0 18.41,18.42 18.44,18.44 0 0 0 -18.41,-18.46 z m 0,31.19 a 12.78,12.78 0 1 1 12.78,-12.77 12.79,12.79 0 0 1 -12.78,12.73 z m 39,-31.19 a 18.42,18.42 0 1 0 18.42,18.42 18.43,18.43 0 0 0 -18.4,-18.46 z m 0,31.19 a 12.78,12.78 0 1 1 12.78,-12.77 12.79,12.79 0 0 1 -12.76,12.73 z M 79.49,70.79 A 7,7 0 0 0 73.65,68 a 6.19,6.19 0 0 0 -4.91,3 102.39,102.39 0 0 0 -4.25,9.72 c -1.61,3.95 -4.16,10.15 -6.08,14.28 -1,-5.6 -2,-15.56 -2.5,-24.58 A 0.53,0.53 0 0 0 55,70 l -4.31,4 a 0.56,0.56 0 0 0 -0.16,0.43 c 0.2,2.76 0.48,6.38 0.84,10 1.62,16.29 3.15,17.65 4.17,18.55 A 3.34,3.34 0 0 0 58,104 c 2.08,-0.13 3.31,-1.74 6.25,-8.19 C 66,92 68,87.14 69.7,82.9 c 1.56,-3.79 3.33,-8.09 3.84,-8.9 0.21,-0.35 0.4,-0.36 0.46,-0.36 a 1.44,1.44 0 0 1 1.08,0.66 c 1.42,1.93 7.14,18 12,32.74 a 0.53,0.53 0 0 0 1,0.12 l 3.18,-4.93 a 0.51,0.51 0 0 0 0.06,-0.45 C 87.92,91.7 81.7,73.55 79.49,70.79 Z m 51.93,11.35 c -2,-0.18 -4,-0.34 -4.48,-0.38 a 19.1,19.1 0 0 0 -3.56,-6.58 c -2.87,-3.42 -9.37,-8.38 -22.21,-6.71 a 0.52,0.52 0 0 0 -0.38,0.24 L 97.27,74 a 0.54,0.54 0 0 0 0.56,0.82 c 9.82,-2.25 17.14,-0.88 21.24,4 a 13,13 0 0 1 1.67,2.6 c -10.26,-0.35 -20.08,0.8 -24.89,6.85 -2.6,3.26 -2.89,8.39 -0.72,12.75 2.64,5.33 8.18,8.35 15.25,8.35 H 111 c 6.3,-0.14 11.86,-4.18 14.86,-10.81 a 24.43,24.43 0 0 0 2.13,-11 c 0,0 3.8,-4.56 3.8,-4.56 a 0.54,0.54 0 0 0 -0.37,-0.86 z M 120.67,96.2 c -1,2.21 -4,7.37 -9.85,7.51 -6.93,0.16 -9.64,-3.2 -10.64,-5.22 -1.34,-2.68 -1,-5.42 0.08,-6.73 3.08,-3.88 10.67,-4.79 17.47,-4.79 1.57,0 3.1,0 4.52,0.12 a 18.7,18.7 0 0 1 -1.58,9.11 z M 204,74.76 a 0.53,0.53 0 0 0 -0.8,-0.51 l -5,2.92 a 0.51,0.51 0 0 0 -0.25,0.38 c -1.15,8.07 -3.53,18.6 -6.72,22 a 8.5,8.5 0 0 1 -6.81,2.9 c -3.26,-0.18 -6.67,-2.2 -9.11,-5.41 -4.22,-5.54 -6.41,-23 -6.94,-29.72 a 0.53,0.53 0 0 0 -0.82,-0.4 l -4.27,2.83 a 0.54,0.54 0 0 0 -0.24,0.48 c 0.24,3.42 1.76,22.3 7.79,30.22 3.43,4.51 8.39,7.36 13.28,7.63 h 0.79 a 14.15,14.15 0 0 0 10.42,-4.67 c 5.78,-6.15 8.09,-23.77 8.68,-28.65 z m 8.34,-13.88 c -3.1,-1.05 -5.08,-2.88 -5.91,-5.42 -1.15,-3.54 0,-8.5 2.93,-12.64 3.68,-5.2 15.78,-5.87 24.49,-4.43 a 0.53,0.53 0 0 0 0.53,-0.23 l 2.7,-4.16 a 0.53,0.53 0 0 0 -0.33,-0.82 c -9.59,-2 -26.11,-2 -32,6.35 -4,5.63 -5.39,12.39 -3.69,17.64 1,3 3.39,7 9.45,9 21.14,7.19 33.05,18.93 33.55,33 0.41,11.44 -7.46,23.19 -18.7,27.92 -10,4.23 -20.37,2 -28.5,-6 a 0.53,0.53 0 0 0 -0.89,0.28 l -1,5.26 a 0.52,0.52 0 0 0 0.18,0.51 31.51,31.51 0 0 0 14.59,7.17 29.57,29.57 0 0 0 5.48,0.51 31.74,31.74 0 0 0 12.33,-2.55 c 13.54,-5.7 22.65,-19.4 22.16,-33.32 C 249.32,89.43 244,71.68 212.29,60.88 Z m -168,39.42 c -4.51,-3.27 -9.07,-4.81 -13.09,-6.17 -3.52,-1.18 -6.55,-2.21 -8,-4 -1,-1.2 -2.13,-3.57 -0.6,-10.25 1,-4.46 7.22,-6.59 12.13,-6 3,0.37 5.9,1.68 6.5,5 a 0.53,0.53 0 0 0 0.88,0.29 l 3,-2.84 a 0.51,0.51 0 0 0 0.14,-0.55 c -1,-3 -3.51,-6.47 -9.57,-7.45 -7.55,-1.21 -16.81,2.49 -18.6,10.28 -3.57,15.5 4.51,18.23 12.33,20.88 3.65,1.23 7.78,2.62 11.6,5.39 10.75,7.76 15.76,19.43 13.75,32 -2,12.31 -10.48,22.89 -21.18,26.31 -10.07,3.23 -21.12,0.08 -31.54,-8.87 a 0.54,0.54 0 0 0 -0.87,0.28 l -1.19,5 a 0.55,0.55 0 0 0 0.19,0.54 c 8.27,6.59 17,10 25.46,10 a 31.35,31.35 0 0 0 9.66,-1.52 c 12.89,-4.12 22.71,-16.21 25,-30.79 2.37,-14.83 -3.46,-28.47 -16,-37.53 z"
                 id="path6" />
            </g>
          </g>
        </g>
      </g>
      <g
         transform="translate(-43.964943)"
         id="g1463">
        <g
           transform="matrix(0.81866305,0,0,0.81866305,2.2661834,-2.3327452)"
           id="g915">
          <g
             id="g921"
             transform="matrix(0.93146286,0,0,0.93146286,-35.484744,-2.4088512)"
             style="fill:#ffffff">
            <path
               class="cls-1"
               d="m 29.18,80.26 a 3.38,3.38 0 0 0 0.12,0.35 c 0.21,0.42 0.4,0.84 0.63,1.25 a 36.65,36.65 0 0 0 10.33,11.45 19,19 0 0 0 6.92,3.47 5.68,5.68 0 0 0 2,0.11 c 1.29,-0.19 2,-1.44 1.88,-3.06 a 0.59,0.59 0 0 0 -0.14,-0.06 8.48,8.48 0 0 1 -6,-4.44 A 0.9,0.9 0 0 0 44.38,88.97 33,33 0 0 1 33,83.38 c -1.28,-1 -2.48,-2 -3.77,-3.12 M 77.25,79 77.16,78.94 c -0.89,0.85 -1.77,1.72 -2.69,2.54 a 33.06,33.06 0 0 1 -13.54,7.43 1.61,1.61 0 0 0 -1.09,0.8 8.47,8.47 0 0 1 -5.51,4 c -0.45,0.1 -0.7,0.23 -0.53,0.73 a 2.26,2.26 0 0 1 0,0.26 2.5,2.5 0 0 0 2.31,2.42 5.4,5.4 0 0 0 1.7,-0.21 28.36,28.36 0 0 0 11.33,-6.68 36.13,36.13 0 0 0 5.78,-7.25 c 0.81,-1.3 1.55,-2.64 2.32,-4 M 51.7,6.14 V 4.56 C 51.7,3 51.7,3 50.11,3 A 15.37,15.37 0 0 0 43,4.93 a 31.47,31.47 0 0 0 -10.1,8.39 25.54,25.54 0 0 0 -4.43,7.75 1.56,1.56 0 0 0 0,0.53 1.74,1.74 0 0 0 0.54,-0.21 c 0.46,-0.4 0.88,-0.84 1.34,-1.25 a 33.78,33.78 0 0 1 13.86,-7.7 0.74,0.74 0 0 0 0.43,-0.4 8.65,8.65 0 0 1 7.1,-5.9 M 77.59,21.2 76.72,19.58 a 38.16,38.16 0 0 0 -9.85,-12 19.84,19.84 0 0 0 -8.57,-4.4 4.91,4.91 0 0 0 -1.91,0 2.7,2.7 0 0 0 -1.76,2.93 0.57,0.57 0 0 0 0.36,0.29 8.24,8.24 0 0 1 5.85,5.6 0.84,0.84 0 0 0 0.66,0.6 32.57,32.57 0 0 1 8.79,4.08 40.16,40.16 0 0 1 6.14,5.07 l 1.16,-0.58 m 16.14,55.18 c 0,-0.07 0,-0.14 0,-0.2 -0.91,0 -1.82,0 -2.72,0 a 2.69,2.69 0 0 0 -2.11,0.57 8,8 0 0 1 -7.63,1.52 c -0.35,-0.1 -0.6,-0.08 -0.8,0.26 -0.37,0.63 -0.75,1.26 -1.16,1.87 q -3,4.62 -6.12,9.23 c -0.79,1.19 -1.6,2.36 -2.43,3.57 9.8,-2.75 17.07,-8.86 23,-16.8 M 92.64,21.69 c 0,-0.1 0,-0.15 0,-0.17 -2.37,-2.37 -4.68,-4.79 -7.12,-7.1 A 37,37 0 0 0 71,6 C 70.83,5.94 70.65,5.91 70.34,5.83 l 2,2.83 5.62,8.07 c 0.84,1.21 1.67,2.41 2.53,3.6 a 0.91,0.91 0 0 0 0.58,0.4 8.78,8.78 0 0 1 5,2.05 1,1 0 0 0 0.62,0.17 24.34,24.34 0 0 0 6,-1.27 M 11.09,23 a 1.08,1.08 0 0 0 0.19,0 c 2.42,0 4.85,0 7.27,0 a 1,1 0 0 0 0.61,-0.26 8,8 0 0 1 5.59,-2 0.79,0.79 0 0 0 0.81,-0.45 q 4.64,-7.2 9.3,-14.4 C 35.08,5.54 35.29,5.18 35.57,4.72 A 54.87,54.87 0 0 0 11.09,23 M 11,76.37 a 56.11,56.11 0 0 0 10.76,11 50.69,50.69 0 0 0 13.66,7.2 l -0.3,-0.52 Q 30,86.26 24.86,78.4 A 0.72,0.72 0 0 0 24,78 8.62,8.62 0 0 1 17.6,76.59 1,1 0 0 0 17.08,76.37 c -2,0 -3.95,0 -6,0 m 80.3,-2.7 c 0.66,0 1.27,0 1.87,0 a 3.74,3.74 0 0 0 3.47,-2.22 c 0.86,-1.69 1.71,-3.39 2.45,-5.14 a 30.32,30.32 0 0 0 2.67,-12.08 2.77,2.77 0 0 0 -2.69,-2.91 c -0.86,0 -1.72,0 -2.58,0 -1.88,0 -3.76,0 -5.64,0 a 5.88,5.88 0 0 0 -2.73,0.43 1,1 0 0 0 -0.47,0.61 45.18,45.18 0 0 1 -1.31,8.8 c -0.2,0.77 -0.19,0.77 0.53,1.07 A 8.35,8.35 0 0 1 92.14,70 9,9 0 0 1 91.33,73.63 M 18.76,61.84 c 0,-0.13 -0.07,-0.21 -0.09,-0.3 a 42.77,42.77 0 0 1 -1.29,-8.86 c 0,-0.64 -0.25,-0.85 -0.79,-0.92 A 5.93,5.93 0 0 0 16,51.69 L 5.6,51.74 c -1.9,0 -3.44,1.31 -2.7,3.62 C 4.61,60.65 6.33,66 8,71.26 a 4.13,4.13 0 0 0 2.29,2.48 8,8 0 0 0 3.07,0.41 c 0.56,0 1.12,0 1.79,0 a 8.66,8.66 0 0 1 3.6,-12.32 M 88,25.15 c 0.15,0.32 0.2,0.45 0.26,0.58 a 8,8 0 0 1 0.8,3.42 8.42,8.42 0 0 1 -3.41,6.92 c -0.2,0.17 -0.41,0.27 -0.28,0.64 a 42.22,42.22 0 0 1 2.22,11.12 1,1 0 0 0 0.59,0.86 6.16,6.16 0 0 0 3.25,0.51 c 2.29,0 4.59,-0.09 6.88,0 2.62,0.06 4.33,-1.49 3.56,-4 Q 99.29,36.73 96.6,28.29 A 3.88,3.88 0 0 0 93.5,25.53 50.71,50.71 0 0 0 88,25.21 M 19.72,36.32 c -3.47,-3 -4.5,-6.53 -2.78,-10.92 -1.58,0.11 -3.09,0.12 -4.57,0.36 a 6,6 0 0 0 -4.32,2.54 27.9,27.9 0 0 0 -2,3.74 41.82,41.82 0 0 0 -3.3,13.87 3.38,3.38 0 0 0 3.16,3.51 q 4.31,0 8.6,-0.06 A 4.08,4.08 0 0 0 17,48.85 1.15,1.15 0 0 0 17.39,48.18 11.91,11.91 0 0 0 17.5,46.84 43.92,43.92 0 0 1 19.72,36.32 M 44.52,16.73 A 30.57,30.57 0 0 0 31.7,24.4 c 0.28,0.55 0.56,1.05 0.79,1.57 a 8.49,8.49 0 0 1 -8.64,11.82 c -0.39,0 -0.59,0 -0.72,0.46 a 39.29,39.29 0 0 0 -2,13.65 42.15,42.15 0 0 0 1.17,8.44 c 0.13,0.56 0.36,0.74 0.94,0.8 a 8.38,8.38 0 0 1 7.66,9.49 9.25,9.25 0 0 1 -1.44,3.85 31.11,31.11 0 0 0 14.48,10 8.57,8.57 0 0 1 8,-7.62 7.87,7.87 0 0 1 5,1.22 8.74,8.74 0 0 1 4.06,6.36 h 0.21 A 30.56,30.56 0 0 0 75.71,74.3 0.74,0.74 0 0 0 75.77,73.65 9,9 0 0 1 75,70 8.52,8.52 0 0 1 82,61.59 0.78,0.78 0 0 0 82.48,61.15 38.26,38.26 0 0 0 83.9,49.74 38.66,38.66 0 0 0 82.59,40.66 c -0.26,-1 -0.58,-1.93 -0.86,-2.85 -3.68,0.27 -6.58,-1 -8.51,-4 -1.93,-3 -1.64,-6.22 0.21,-9.27 A 30.72,30.72 0 0 0 61.09,16.9 8.76,8.76 0 0 1 52.68,23.24 8.6,8.6 0 0 1 44.52,16.73 M 52.8,100 c -0.48,0 -1,0 -1.45,0 A 24.31,24.31 0 0 1 46,99.45 66.39,66.39 0 0 1 34.26,96.67 52.08,52.08 0 0 1 17.85,87.35 49.81,49.81 0 0 1 5.41,71.84 48.25,48.25 0 0 1 0.15,53.42 46.66,46.66 0 0 1 5.32,28 50.11,50.11 0 0 1 13.02,17 51.22,51.22 0 0 1 29,5.15 53.53,53.53 0 0 1 47.14,0.23 55.54,55.54 0 0 1 69.89,2.88 52.45,52.45 0 0 1 88,12.93 46.18,46.18 0 0 1 98.43,26 a 58.17,58.17 0 0 1 5.5,15.56 c 0.27,1.27 0.59,2.54 0.87,3.82 a 4.33,4.33 0 0 1 0.11,0.95 q 0,3.62 0,7.22 a 3.49,3.49 0 0 1 -0.1,0.79 c -0.53,2.29 -1,4.58 -1.61,6.85 a 51.79,51.79 0 0 1 -7,16 46.34,46.34 0 0 1 -12.42,12.6 60.61,60.61 0 0 1 -21.2,9 c -1.68,0.38 -3.35,0.78 -5,1.1 a 10.68,10.68 0 0 1 -1.88,0.08 c -0.95,0 -1.9,0 -2.86,0"
               id="path6-6"
               style="fill:#ffffff" />
            <path
               class="cls-1"
               d="m 55.7,38.54 h 3.71 c 0.74,0 1.47,0 2.21,0 0.11,0 0.21,0.12 0.32,0.19 -0.09,0.08 -0.16,0.21 -0.27,0.24 -1.46,0.44 -1.56,0.56 -1.56,2.1 q 0,7.79 0,15.57 c 0,0.25 0,0.5 0,0.75 a 1.21,1.21 0 0 0 1,1.18 2.09,2.09 0 0 1 0.52,0.13 1.8,1.8 0 0 1 0.39,0.34 1.29,1.29 0 0 1 -0.43,0.17 c -1.49,0 -3,0 -4.47,0 -0.35,0 -0.69,0 -1,0 -0.11,0 -0.21,-0.11 -0.32,-0.18 0.09,-0.09 0.16,-0.24 0.26,-0.26 1.4,-0.3 1.75,-1.2 1.69,-2.54 -0.07,-2.06 0,-4.13 0,-6.19 0,-0.79 -0.24,-1.06 -1,-1 h -8.73 c -1,0 -1.16,0.12 -1.16,1.13 v 6.41 c 0,0.16 0,0.33 0,0.49 a 1.45,1.45 0 0 0 1.26,1.55 2.22,2.22 0 0 1 0.57,0.37 2.64,2.64 0 0 1 -0.67,0.17 c -1.7,0 -3.41,0 -5.12,0 a 1.49,1.49 0 0 1 -0.51,-0.18 3.15,3.15 0 0 1 0.41,-0.31 c 0.22,-0.12 0.46,-0.19 0.69,-0.29 a 1,1 0 0 0 0.7,-1 c 0,-0.43 0.05,-0.86 0.05,-1.29 q 0,-7.12 0,-14.27 c 0,-0.38 -0.06,-0.76 0,-1.13 a 1.27,1.27 0 0 0 -1.08,-1.43 3.9,3.9 0 0 1 -0.74,-0.42 4.61,4.61 0 0 1 0.81,-0.15 q 2.54,0 5.07,0 c 0.15,0 0.3,0.14 0.45,0.21 A 2.12,2.12 0 0 1 48.34,39.13 1.51,1.51 0 0 0 47,40.86 l -0.06,6.68 c 0,0.89 0.13,1 1,1 h 2.21 c 0.65,0 0.93,-0.23 1,-0.87 a 18.93,18.93 0 0 0 0.09,-2 q 0,-4.23 0,-8.46 c 0,-1 -0.19,-1.14 -1.18,-1.08 -0.79,0.05 -1.58,0.05 -2.37,0.06 a 1.69,1.69 0 0 0 -1.6,0.69 v -3.54 a 3,3 0 0 0 2.75,0.85 c 0.51,-0.06 1,0 1.56,0 0.56,0 0.83,-0.24 0.83,-0.87 0,-0.63 0,-1.07 -0.05,-1.61 a 1.43,1.43 0 0 0 -0.65,-1.28 0.51,0.51 0 0 1 -0.17,-0.34 c 0,0 0.16,-0.14 0.25,-0.14 h 3.82 c -0.19,0.23 -0.26,0.4 -0.38,0.44 a 1.22,1.22 0 0 0 -0.83,1.25 c 0,0.57 0,1.14 0,1.71 0,0.41 0.2,0.7 0.65,0.7 1.22,0 2.44,0 3.65,0 0.25,0 0.49,-0.27 0.82,-0.47 V 37 c -0.63,-0.84 -1.57,-0.77 -2.49,-0.76 -0.56,0 -1.12,0 -1.67,-0.05 -0.55,-0.05 -0.86,0.12 -0.91,0.76 -0.06,0.8 -0.1,1.61 -0.1,2.41 0,2.69 0,5.38 0.11,8.07 0,0.79 0.36,1.09 1.15,1.09 h 2.38 c 0.47,0 0.72,-0.2 0.72,-0.71 0,-2.44 0,-4.89 0,-7.33 0,-0.85 -0.36,-1.2 -1.45,-1.51 a 1.69,1.69 0 0 1 -0.41,-0.29 z"
               id="path66"
               style="fill:#ffffff" />
            <path
               class="cls-1"
               d="M 68.66,59.72 A 6.12,6.12 0 0 1 65.78,59 c -0.38,-0.19 -0.76,-0.4 -1.15,-0.59 -0.59,-0.28 -0.78,-0.21 -1,0.38 -0.05,0.1 -0.06,0.22 -0.13,0.29 a 2.12,2.12 0 0 1 -0.38,0.29 c -0.07,-0.14 -0.22,-0.28 -0.22,-0.42 0,-0.55 0.09,-1.11 0.1,-1.66 0,-1.65 0,-3.3 0,-4.95 0,-0.22 -0.13,-0.59 0.28,-0.53 0.14,0 0.32,0.33 0.35,0.52 A 10.92,10.92 0 0 0 65.07,57 4.22,4.22 0 0 0 69.38,58.91 3.31,3.31 0 0 0 72,54.57 5.81,5.81 0 0 0 69.75,51.39 C 68.18,50.23 66.58,49.1 65.06,47.88 a 5.73,5.73 0 0 1 -0.56,-8.26 5.43,5.43 0 0 1 6.39,-1 c 0.35,0.2 0.69,0.4 1,0.62 0.31,0.22 0.64,0.22 0.85,-0.22 a 4,4 0 0 1 0.52,-0.66 5.28,5.28 0 0 1 0.15,0.87 c 0,1.59 0,3.19 -0.05,4.78 a 1.17,1.17 0 0 1 0,0.42 1.53,1.53 0 0 1 -0.29,0.38 c -0.12,-0.12 -0.31,-0.23 -0.33,-0.37 a 9.56,9.56 0 0 0 -1,-3.27 4.63,4.63 0 0 0 -2.13,-2.13 3.13,3.13 0 0 0 -3.76,0.6 3.3,3.3 0 0 0 -0.41,3.81 6.86,6.86 0 0 0 2.18,2.27 c 1.56,1.17 3.15,2.3 4.65,3.56 a 6.18,6.18 0 0 1 1.86,6.9 6,6 0 0 1 -5.42,3.51"
               id="path68"
               style="fill:#ffffff" />
            <path
               class="cls-1"
               d="m 31.61,38.75 h 6.31 a 0.65,0.65 0 0 1 0,0.13 5.11,5.11 0 0 1 -0.64,0.27 c -1,0.28 -1.31,0.64 -1.31,1.68 C 36,46.21 36,51.6 36,57 a 1.47,1.47 0 0 0 1.13,1.65 1.41,1.41 0 0 1 0.44,0.18 0.82,0.82 0 0 1 0.19,0.28 c -0.09,0 -0.17,0.13 -0.25,0.14 a 9.9,9.9 0 0 1 -1.07,0.1 c -1.51,0 -3,0 -4.53,0 -0.12,0 -0.25,-0.12 -0.37,-0.18 0.11,-0.09 0.22,-0.24 0.34,-0.25 1.34,-0.15 1.59,-1 1.59,-2 V 41 a 1.57,1.57 0 0 0 -1.23,-1.72 6.91,6.91 0 0 1 -0.72,-0.36 0.71,0.71 0 0 1 0.08,-0.15"
               id="path70"
               style="fill:#ffffff" />
            <path
               class="cls-1"
               d="m 48.42,71.27 a 2.6,2.6 0 0 1 -0.56,-0.06 c -1.28,-0.51 -2.55,-1 -3.82,-1.56 a 2.28,2.28 0 0 0 -2.26,0.14 1,1 0 0 1 -1.28,-0.13 c -0.38,-0.32 -0.27,-0.72 -0.07,-1.08 0.55,-1 1.12,-2 1.73,-3 a 0.78,0.78 0 0 1 0.68,-0.18 c 0.37,0.08 0.76,0.29 0.69,0.75 A 1.87,1.87 0 0 0 44.45,68 l 3.6,2.71 a 5.08,5.08 0 0 1 0.43,0.38 l -0.06,0.16"
               id="path72"
               style="fill:#ffffff" />
            <path
               class="cls-1"
               d="m 55.73,71.21 a 4.36,4.36 0 0 0 0.59,-0.35 l 3.17,-2.39 a 2,2 0 0 0 0.95,-2 0.85,0.85 0 0 1 0.62,-0.95 0.76,0.76 0 0 1 1,0.29 c 0.6,1 1.16,2.09 1.72,3.15 a 0.76,0.76 0 0 1 -1.08,0.93 2.41,2.41 0 0 0 -2.26,-0.11 c -1.41,0.54 -2.82,1 -4.22,1.57 a 2.17,2.17 0 0 1 -0.35,0.07 l -0.18,-0.2"
               id="path74"
               style="fill:#ffffff" />
            <path
               class="cls-1"
               d="m 52,69.61 c 0,-0.16 -0.08,-0.32 -0.11,-0.48 L 51.22,65 A 2.11,2.11 0 0 0 50,63.29 1,1 0 0 1 49.47,62 c 0.13,-0.48 0.54,-0.52 0.94,-0.52 h 2.9 a 1.38,1.38 0 0 1 0.68,0.14 1,1 0 0 1 0.43,0.6 0.79,0.79 0 0 1 -0.26,0.67 2.63,2.63 0 0 0 -1.33,2.14 c -0.21,1.42 -0.43,2.83 -0.64,4.24 a 3,3 0 0 1 -0.1,0.32 H 52"
               id="path76"
               style="fill:#ffffff" />
          </g>
          <g
             style="fill:#ffffff"
             transform="translate(755.97351,111.69346)"
             data-name="Layer 1"
             id="Layer_1-2">
            <g
               style="fill:#ffffff"
               transform="translate(-938.35593,-20.260439)"
               id="g1367">
              <path
                 style="fill:#ffffff"
                 class="cls-1"
                 d="m 133.26,31.18 c -2.26,-0.28 -4.42,0.28 -6.6,0.27 -2.18,-0.01 -4.36,0 -6.55,0 -2.19,0 -4.35,-0.22 -6.58,-0.34 0,1 0.1,1.78 0.15,2.65 l 6,0.58 a 1.1,1.1 0 0 1 0.06,0.24 c 0.1,2.88 0.24,5.75 0.3,8.63 0.07,3.5 0.08,7 0.11,10.49 0,5.08 0.1,10.16 0.09,15.25 0,2.76 -0.09,5.52 -0.2,8.27 a 5.87,5.87 0 0 1 -0.43,1.93 1.45,1.45 0 0 1 -2.59,0.49 c -0.52,-0.54 -0.9,-1.2 -1.37,-1.78 a 10.64,10.64 0 0 0 -1.15,-1.35 c -2.16,-2 -5,-0.29 -5.57,1.78 a 5,5 0 0 0 4.62,5.83 11.9,11.9 0 0 0 6.6,-1.7 c 3.55,-2.1 5.56,-5.38 6.83,-9.16 1.15,-3.43 1.25,-7 1.34,-10.61 0,-2.06 0,-4.13 0,-6.19 0,-2.88 0,-5.76 0,-8.64 -0.06,-4.23 -0.17,-8.46 -0.25,-12.68 0,-1.22 0,-1.21 1.2,-1.3 l 3.61,-0.3 c 0.29,0 0.44,-0.11 0.44,-0.44 0,-0.6 0,-1.21 0,-1.88"
                 id="path1190" />
              <path
                 style="fill:#ffffff"
                 class="cls-1"
                 d="m 208,65.42 v 4.94 a 14.43,14.43 0 0 0 1.71,-0.23 c 0.81,-0.21 1.59,-0.54 2.39,-0.79 A 22.8,22.8 0 0 1 218.17,68 c 0.12,0 0.33,-0.22 0.34,-0.34 0,-0.5 0,-1 0,-1.54 a 4.37,4.37 0 0 0 -0.66,-0.05 c -0.75,0 -1.5,0 -2.25,0.07 a 0.82,0.82 0 0 1 -0.9,-0.62 2.38,2.38 0 0 1 -0.13,-0.88 c 0,-1.45 0.08,-2.89 0.1,-4.34 0,-2.22 0.06,-4.44 0.08,-6.66 0,-1.76 0,-3.53 0,-5.29 v -3.1 h -0.66 c -1.38,0 -2.76,0 -4.14,0 -1.64,0 -3.29,0 -4.93,0 -1.26,0 -1.4,0.19 -1.29,1.47 0.06,0.7 0.17,0.77 0.86,0.85 1,0.11 2,0.26 3,0.43 a 0.67,0.67 0 0 1 0.59,0.73 c 0,1.66 0.08,3.32 0.05,5 -0.05,2.79 -0.15,5.58 -0.26,8.37 a 2.19,2.19 0 0 1 -0.32,1.13 7.4,7.4 0 0 1 -6.65,3.5 3.63,3.63 0 0 1 -3.65,-3.53 c -0.11,-1.27 -0.19,-2.55 -0.2,-3.82 0,-4.49 0,-9 0.05,-13.47 0,-0.48 -0.11,-0.68 -0.63,-0.68 -2.93,0 -5.87,0 -8.81,0 -0.48,0 -0.8,0.17 -0.79,0.73 a 3.05,3.05 0 0 1 -0.07,0.67 0.61,0.61 0 0 0 0.51,0.82 c 0.71,0.17 1.42,0.34 2.14,0.49 0.95,0.2 1.17,0.4 1.18,1.34 0,2.15 0,4.3 0,6.45 0,2.72 -0.08,5.45 0.06,8.17 0.17,3.16 1.88,5.13 5.11,6.07 a 9.3,9.3 0 0 0 6.84,-0.66 21,21 0 0 0 4.71,-3.46 l 0.52,-0.43"
                 id="path1192" />
              <path
                 style="fill:#ffffff"
                 class="cls-1"
                 d="m 270,63.65 a 1,1 0 0 1 -0.15,0.5 5.93,5.93 0 0 1 -4,2.83 2.83,2.83 0 0 1 -3.22,-3.22 4.65,4.65 0 0 1 1.61,-3.29 17.88,17.88 0 0 1 5.54,-3.29 l 0.26,-0.06 a 33.08,33.08 0 0 1 -0.08,6.53 m 7.35,6 a 5.41,5.41 0 0 0 3.59,-4.55 1.33,1.33 0 0 0 -1,-1.07 0.78,0.78 0 0 0 -0.84,0.47 c -0.16,0.27 -0.37,0.52 -0.5,0.8 a 0.89,0.89 0 0 1 -1.58,0 2.71,2.71 0 0 1 -0.32,-1.14 c 0,-2.15 0,-4.3 -0.08,-6.45 -0.05,-2.62 0,-5.24 -0.19,-7.85 -0.2,-3 -1.77,-4.69 -4.72,-5.26 a 18.9,18.9 0 0 0 -3.28,-0.21 14.87,14.87 0 0 0 -11.04,4.61 6.29,6.29 0 0 0 -2.18,4.81 c 0,0.85 0.38,1.17 1.16,0.88 1.5,-0.56 3,-1.2 4.45,-1.84 a 1.53,1.53 0 0 0 0.89,-1.27 c 0.06,-0.43 0.16,-0.86 0.22,-1.29 a 3.94,3.94 0 0 1 2.69,-3.54 9.29,9.29 0 0 1 2.09,-0.46 c 1.82,-0.15 2.64,0.47 3.08,2.25 a 20.07,20.07 0 0 1 0.36,5.94 0.65,0.65 0 0 1 -0.5,0.66 c -2.87,1.16 -5.75,2.28 -8.58,3.51 a 10.65,10.65 0 0 0 -4.72,3.62 c -1.77,2.6 -1.15,6.68 2.89,7.44 a 13.06,13.06 0 0 0 7.56,-0.75 8.23,8.23 0 0 0 4,-3.51 c 0.41,0.71 0.76,1.42 1.19,2.06 a 5,5 0 0 0 5.39,2.12"
                 id="path1194" />
              <path
                 style="fill:#ffffff"
                 class="cls-1"
                 d="m 146.24,46.72 a 4.51,4.51 0 0 1 5.48,0.56 c 1.55,1.35 1.95,3.18 2.11,5.24 h -10.7 a 7,7 0 0 1 3.11,-5.8 m 14.41,18.13 -1.88,-1.48 a 12.85,12.85 0 0 1 -4.08,2.09 c -3.26,0.89 -6.25,0.45 -8.74,-2 -2.49,-2.45 -3,-5.39 -3,-8.6 0,-0.37 0.21,-0.41 0.51,-0.41 1.5,0 3,-0.06 4.51,0 3.19,0.1 6.39,0.27 9.58,0.39 1,0 2,0 3,0 0,-0.44 -0.06,-0.85 -0.1,-1.26 a 10.26,10.26 0 0 0 -6.9,-8.73 12.91,12.91 0 0 0 -7.18,-0.56 12.67,12.67 0 0 0 -9.11,7.13 13.17,13.17 0 0 0 -1.21,7.41 c 0.59,6 4.58,10.91 11,11.41 a 14.78,14.78 0 0 0 10.71,-2.9 c 1,-0.77 1.87,-1.65 2.84,-2.52"
                 id="path1196" />
              <path
                 style="fill:#ffffff"
                 class="cls-1"
                 d="m 179.7,55.42 a 28.15,28.15 0 0 0 -6.14,-1.89 7.3,7.3 0 0 1 -3.51,-1.53 2.83,2.83 0 0 1 0.38,-4.74 5.87,5.87 0 0 1 7,0.72 14.14,14.14 0 0 1 2.61,3.71 c 0.5,0.92 0.7,1 1.75,0.87 a 2.09,2.09 0 0 1 0.36,-0.07 c 0.54,0 0.7,-0.33 0.63,-0.84 -0.24,-1.77 -0.48,-3.53 -0.68,-5.3 a 1,1 0 0 0 -0.75,-0.89 19.39,19.39 0 0 0 -6.35,-1.21 13.45,13.45 0 0 0 -5.27,0.57 7.64,7.64 0 0 0 -5.23,8.68 7.13,7.13 0 0 0 5.4,6 c 1.35,0.42 2.73,0.72 4.1,1.08 a 12.62,12.62 0 0 1 4.14,1.57 2.51,2.51 0 0 1 1.07,2.7 4.46,4.46 0 0 1 -4.19,3.29 7.82,7.82 0 0 1 -6,-2.57 20.09,20.09 0 0 1 -2.64,-4 0.87,0.87 0 0 0 -0.92,-0.53 c -0.45,0 -0.9,0.08 -1.36,0.12 0,0.12 -0.07,0.18 -0.06,0.22 0.27,2.17 0.53,4.33 0.84,6.49 a 1,1 0 0 0 0.54,0.65 11.12,11.12 0 0 0 2.38,0.91 49.19,49.19 0 0 0 5.38,0.81 12.87,12.87 0 0 0 6.56,-1 7.44,7.44 0 0 0 -0.1,-13.83"
                 id="path1198" />
              <path
                 style="fill:#ffffff"
                 class="cls-1"
                 d="m 239.57,48.92 c 0,0.12 0.05,0.19 0.05,0.25 0,3.32 0,6.64 0,10 0,1.85 -0.07,3.71 0.09,5.54 a 5.43,5.43 0 0 0 3,4.58 7.28,7.28 0 0 0 4.75,0.54 7.88,7.88 0 0 0 5.14,-3.06 0.55,0.55 0 0 0 0,-0.79 c -0.34,-0.37 -0.71,-0.71 -1.08,-1.08 l -1.23,0.91 a 3.24,3.24 0 0 1 -3.14,0.32 1.1,1.1 0 0 1 -0.45,-0.41 4.52,4.52 0 0 1 -0.62,-2.61 q 0,-6.9 0,-13.79 a 2.33,2.33 0 0 1 0,-0.36 2.31,2.31 0 0 1 0.43,-0.08 c 1.18,0 2.37,0.06 3.55,0.06 0.58,0 1.15,0 1.72,-0.1 a 0.37,0.37 0 0 0 0.27,-0.19 5.49,5.49 0 0 0 0,-2.9 l -5.72,0.19 c 0,-0.29 0,-0.47 0,-0.66 0,-1.43 0.08,-2.86 0.09,-4.3 a 8.14,8.14 0 0 0 -0.17,-1.29 c 0,-0.1 -0.12,-0.26 -0.19,-0.27 a 6.35,6.35 0 0 0 -1.51,0 c -0.21,0 -0.36,0.42 -0.51,0.68 a 12.89,12.89 0 0 1 -5.59,5.7 11.49,11.49 0 0 1 -1.51,0.71 1.29,1.29 0 0 0 -1,1.59 c 0.06,0.67 0.2,0.85 0.89,0.84 h 2.72"
                 id="path1200" />
              <path
                 style="fill:#ffffff"
                 class="cls-1"
                 d="m 234.17,67.78 a 3.89,3.89 0 0 1 -0.47,-0.09 l -2.92,-0.59 a 0.42,0.42 0 0 1 -0.39,-0.46 c 0,-0.55 -0.09,-1.11 -0.08,-1.67 0.05,-3.51 0.15,-7 0.18,-10.53 0,-3 0,-6.08 0,-9.12 v -2.47 c -0.47,0 -0.8,0 -1.13,0 a 1.84,1.84 0 0 0 -1.61,0.61 10.32,10.32 0 0 1 -4.94,2.72 c -1.07,0.25 -2.16,0.4 -3.26,0.6 v 1.6 a 9.64,9.64 0 0 1 1.11,0.13 25.32,25.32 0 0 1 2.46,0.63 1,1 0 0 1 0.75,1 c 0,0.43 0.08,0.87 0.08,1.3 0,2.58 0,5.17 -0.07,7.75 0,2.12 0,4.23 0,6.34 0,1.13 -0.5,1.58 -1.64,1.72 -0.86,0.1 -1.73,0.21 -2.59,0.34 -0.15,0 -0.39,0.18 -0.39,0.28 0,0.57 0,1.14 0,1.77 a 141.34,141.34 0 0 1 15.54,0 8.77,8.77 0 0 1 0,-1.16 c 0.07,-0.45 -0.08,-0.69 -0.55,-0.71"
                 id="path1202" />
              <path
                 style="fill:#ffffff"
                 class="cls-1"
                 d="m 119.6,10.86 a 19.41,19.41 0 0 1 2.75,0.27 c 1.26,0.31 1.88,1.28 2,2.78 a 2.62,2.62 0 0 1 -2.41,3.14 22.61,22.61 0 0 1 -2.33,0.17 z m 2.49,15.2 c 0.13,-0.85 0.13,-0.86 -0.68,-1.09 -0.5,-0.14 -1,-0.23 -1.51,-0.41 a 0.63,0.63 0 0 1 -0.34,-0.47 c 0,-1.45 0,-2.9 0,-4.35 v -1.32 c 1.87,-0.21 2.19,-0.06 3,1.51 q 1.48,2.92 2.93,5.86 a 0.55,0.55 0 0 0 0.64,0.35 c 0.82,-0.06 1.64,-0.1 2.46,-0.09 0.82,0.01 1.7,0.09 2.53,0.13 a 0.69,0.69 0 0 0 -0.55,-1 3.52,3.52 0 0 1 -2.16,-1.91 c -0.84,-1.47 -1.77,-2.89 -2.67,-4.32 -0.22,-0.35 -0.46,-0.69 -0.69,-1 0.44,-0.21 0.84,-0.37 1.22,-0.58 a 3.74,3.74 0 0 0 0.8,-6.2 5.71,5.71 0 0 0 -4.18,-1.51 c -2.48,0 -5,0.11 -7.43,0.17 a 7.24,7.24 0 0 0 -1.15,0.09 c -0.14,0 -0.29,0.24 -0.34,0.39 a 1.58,1.58 0 0 0 0,0.56 l 1,0.1 c 1.26,0.17 1.09,0.06 1.09,1.16 0,3.69 0,7.38 -0.06,11.06 0,1.63 0,1.63 -1.59,2 -0.7,0.14 -0.78,0.29 -0.6,0.93 z"
                 id="path1204" />
              <path
                 style="fill:#ffffff"
                 class="cls-1"
                 d="m 170.39,26.09 a 16.33,16.33 0 0 0 3.9,0.34 14.88,14.88 0 0 0 5.23,-0.9 1,1 0 0 0 0.74,-1.05 c 0,-1.2 0.07,-2.41 0,-3.61 a 1.08,1.08 0 0 1 0.86,-1.22 c 0.78,-0.24 0.77,-0.28 0.64,-1.24 h -5.71 a 6.12,6.12 0 0 0 -1.05,0 0.67,0.67 0 0 0 -0.42,0.39 0.42,0.42 0 0 0 0.31,0.6 10.19,10.19 0 0 1 1.46,0.42 0.83,0.83 0 0 1 0.48,0.56 c 0,1.21 0,2.41 -0.07,3.61 a 1,1 0 0 1 -0.88,1 c -3,0.79 -5.49,-0.25 -6.65,-3.24 a 10.4,10.4 0 0 1 0,-7.33 5.62,5.62 0 0 1 2.22,-2.84 5,5 0 0 1 6.55,1.05 c 0.38,0.43 0.63,1 1,1.39 a 1.62,1.62 0 0 0 0.93,0.26 1,1 0 0 0 0.21,-0.61 c 0,-0.76 -0.15,-1.53 -0.2,-2.29 a 1,1 0 0 0 -0.64,-0.85 12.44,12.44 0 0 0 -4.88,-1 9.3,9.3 0 0 0 -7.1,2.38 8.46,8.46 0 0 0 -2.53,7.89 7.25,7.25 0 0 0 5.61,6.34"
                 id="path1206" />
              <path
                 style="fill:#ffffff"
                 class="cls-1"
                 d="m 244.35,88.38 a 2,2 0 0 1 -1.72,1.6 2,2 0 0 1 -2.07,-1.28 5.17,5.17 0 0 1 0,-3.83 1.77,1.77 0 0 1 1.51,-1.21 1.86,1.86 0 0 1 2.31,1.7 c 0.08,0.46 0.11,0.94 0.17,1.52 a 13.56,13.56 0 0 1 -0.2,1.5 m -4.5,7.37 a 4.3,4.3 0 0 1 1.23,-0.22 c 1.31,0 2.61,0 3.92,0.07 a 1.06,1.06 0 0 1 0.31,0 c 0.66,0.2 1.29,0.49 1.41,1.24 0.12,0.75 -0.44,1.09 -1,1.41 a 8.65,8.65 0 0 1 -3.5,1 c -0.85,-0.2 -1.73,-0.36 -2.57,-0.63 a 1.4,1.4 0 0 1 -1.06,-1.4 1.6,1.6 0 0 1 1.23,-1.47 m 8.75,-12.17 c -0.58,0.13 -1.14,0.31 -1.72,0.44 a 0.68,0.68 0 0 1 -0.53,-0.08 5.56,5.56 0 0 0 -4.11,-1.22 5.81,5.81 0 0 0 -3.57,1.17 3.58,3.58 0 0 0 0.18,5.89 l 0.62,0.44 c -0.81,0.49 -1.58,1 -2.36,1.43 a 1.25,1.25 0 0 0 -0.62,1.33 1.94,1.94 0 0 0 1.28,1.59 c 0.43,0.19 0.87,0.33 1.33,0.51 -0.69,0.32 -1.36,0.56 -2,0.91 a 1.47,1.47 0 0 0 -0.29,2.5 5.86,5.86 0 0 0 1.94,1.07 10.21,10.21 0 0 0 4.72,0.29 13.4,13.4 0 0 0 3.34,-1 2.81,2.81 0 0 0 1.7,-2.93 2.94,2.94 0 0 0 -2.12,-2.61 A 4.63,4.63 0 0 0 245.1,93 c -1,-0.07 -2,-0.06 -3.08,-0.1 -0.82,0 -1.64,0 -2.45,-0.15 -0.6,-0.08 -0.85,-0.55 -0.64,-1 a 2.73,2.73 0 0 1 2.23,-1 6.23,6.23 0 0 0 4.42,-0.59 3.4,3.4 0 0 0 1.94,-3.32 c 0,-0.45 -0.12,-0.89 -0.19,-1.4 0.2,0 0.35,0.07 0.5,0.12 0.15,0.05 0.55,0.21 0.83,0.33 0.52,0.22 0.84,0.07 0.93,-0.5 a 5.44,5.44 0 0 0 0,-1 c 0,-0.77 -0.27,-1 -1,-0.8"
                 id="path1208" />
              <path
                 style="fill:#ffffff"
                 class="cls-1"
                 d="m 200.8,89.58 a 8.86,8.86 0 0 1 -1.42,1.52 4.83,4.83 0 0 1 -7.86,-1.91 12.5,12.5 0 0 1 -0.53,-5 8.34,8.34 0 0 1 1.35,-4.4 4,4 0 0 1 4.22,-1.79 5.87,5.87 0 0 1 4,2.56 c 0.46,0.63 1,0.68 1.81,0.52 -0.31,-1.16 -0.61,-2.26 -0.89,-3.37 a 0.7,0.7 0 0 0 -0.64,-0.57 21.6,21.6 0 0 0 -5.72,-0.48 8.36,8.36 0 0 0 -8.12,8.34 7.82,7.82 0 0 0 5.81,8.21 14.29,14.29 0 0 0 5.41,0.3 20.12,20.12 0 0 0 2.93,-0.7 c 0.25,-0.07 0.6,-0.27 0.65,-0.47 0.31,-1.13 0.55,-2.28 0.81,-3.44 a 1.56,1.56 0 0 0 -1.79,0.65"
                 id="path1210" />
              <path
                 style="fill:#ffffff"
                 class="cls-1"
                 d="m 162.5,91 a 0.8,0.8 0 0 1 -0.32,0.56 3.22,3.22 0 0 1 -4.71,-1.56 5.68,5.68 0 0 1 0.12,-4.72 2.52,2.52 0 0 1 4.83,0.94 c 0,0.32 0.05,0.63 0.05,0.94 0,0.49 0,1 0,1.47 v 0 c 0,0.78 0,1.57 0,2.35 M 166,92 c -0.52,0 -0.7,-0.23 -0.7,-0.77 0,-2.56 0,-5.12 0,-7.69 0,-2.09 0,-4.18 -0.05,-6.28 0,-0.74 0,-0.78 -0.76,-0.62 l -0.26,0.06 -3.45,0.71 c -0.23,0.57 0.13,0.73 0.58,0.73 a 0.87,0.87 0 0 1 0.95,0.9 c 0.08,0.94 0.11,1.88 0.14,2.82 0,0.58 0,1.15 0,1.82 a 5.77,5.77 0 0 0 -6.82,0.48 5.5,5.5 0 0 0 -1,6.82 c 2,3.32 4.89,3 7.93,1.43 v 1.35 a 5.71,5.71 0 0 0 0.67,-0.13 c 0.67,-0.19 1.33,-0.42 2,-0.59 0.47,-0.12 1,-0.13 1.44,-0.25 0.15,0 0.25,-0.26 0.37,-0.4 a 1.65,1.65 0 0 0 -0.42,-0.34 1.54,1.54 0 0 0 -0.57,0"
                 id="path1212" />
              <path
                 style="fill:#ffffff"
                 class="cls-1"
                 d="m 147.73,17.43 a 2.48,2.48 0 0 1 4.17,0.49 4.91,4.91 0 0 1 0.32,1.62 c 0.05,0.68 0,1.36 0,2 v 0 c 0,0.74 0,1.47 0,2.2 a 0.78,0.78 0 0 1 -0.3,0.52 3.24,3.24 0 0 1 -4.48,-1.06 5.71,5.71 0 0 1 0.26,-5.81 m 4.6,7.74 v 1.38 c 0.28,-0.07 0.47,-0.1 0.66,-0.16 0.64,-0.18 1.26,-0.41 1.9,-0.56 0.64,-0.15 1,-0.15 1.54,-0.27 a 0.6,0.6 0 0 0 0.32,-0.42 c 0,-0.09 -0.21,-0.26 -0.36,-0.32 a 2.64,2.64 0 0 0 -0.57,0 c -0.69,-0.08 -0.72,-0.11 -0.72,-0.8 q 0,-7.07 0,-14.14 c 0,-0.43 -0.16,-0.57 -0.57,-0.48 -0.87,0.21 -1.74,0.4 -2.61,0.58 -0.45,0.09 -0.91,0.13 -1.33,0.19 -0.18,0.56 0.06,0.73 0.5,0.79 0.84,0.12 1,0.28 1.09,1.11 0.08,1 0.07,2.09 0.09,3.14 0,0.39 0,0.78 0,1.21 -3.11,-1.36 -5.36,-1 -7.18,0.95 a 5.47,5.47 0 0 0 -0.59,6.58 c 2.05,3.15 4.88,2.8 7.88,1.26"
                 id="path1214" />
              <path
                 style="fill:#ffffff"
                 class="cls-1"
                 d="m 207.28,18.22 c 0,-0.17 0.06,-0.43 0.18,-0.5 a 3.45,3.45 0 0 1 3.18,-0.55 3.53,3.53 0 0 1 2.1,2.93 5.74,5.74 0 0 1 -0.47,3.62 2.76,2.76 0 0 1 -4.05,1.08 2,2 0 0 1 -0.88,-1.7 c 0,-0.82 0,-1.65 0,-2.47 h -0.06 c 0,-0.8 0,-1.6 0,-2.41 m -3.95,-6.62 a 1.37,1.37 0 0 0 0.53,0.21 0.77,0.77 0 0 1 0.64,0.87 q 0,5.7 0,11.38 v 2.4 c 1.07,0 1,-1.15 1.62,-1.55 l 1,0.56 a 5.94,5.94 0 0 0 5,0.51 5.46,5.46 0 0 0 3.7,-4.45 5,5 0 0 0 -1.86,-5.23 4.75,4.75 0 0 0 -5.36,-0.3 13.47,13.47 0 0 0 -1.39,0.93 V 9.41 a 5.32,5.32 0 0 0 -1.22,0.18 c -0.9,0.37 -1.78,0.79 -2.66,1.21 a 0.56,0.56 0 0 0 -0.28,0.4 0.61,0.61 0 0 0 0.28,0.4"
                 id="path1216" />
              <path
                 style="fill:#ffffff"
                 class="cls-1"
                 d="m 266,91.21 a 2.4,2.4 0 0 1 -3.94,1 2.75,2.75 0 0 1 -0.86,-2 33.17,33.17 0 0 1 0,-4.23 2.48,2.48 0 0 1 3.38,-2.33 2.35,2.35 0 0 1 1.61,1.85 c 0.18,0.84 0.23,1.72 0.37,2.77 A 20.52,20.52 0 0 1 266,91.22 m -2.59,-8.6 a 5.44,5.44 0 0 0 -5.48,5.75 5,5 0 0 0 2.75,4.63 6.47,6.47 0 0 0 4,0.69 5,5 0 0 0 4.4,-3.24 5.55,5.55 0 0 0 -0.77,-5.79 5.64,5.64 0 0 0 -4.94,-2"
                 id="path1218" />
              <path
                 style="fill:#ffffff"
                 class="cls-1"
                 d="m 193.27,18.54 a 2.53,2.53 0 0 1 5,-0.24 c 0.18,0.81 0.22,1.65 0.33,2.58 a 21.66,21.66 0 0 1 -0.44,2.8 2.43,2.43 0 0 1 -3.86,1.39 2.71,2.71 0 0 1 -1,-1.94 14.72,14.72 0 0 1 0,-4.59 m 2.22,7.9 c 3.74,0.19 6.09,-2.24 6.12,-5.46 a 5.23,5.23 0 0 0 -4.23,-5.46 8.75,8.75 0 0 0 -2.75,0 5,5 0 0 0 -4.21,3.19 5.47,5.47 0 0 0 0.65,5.61 5.69,5.69 0 0 0 4.42,2.17"
                 id="path1220" />
              <path
                 style="fill:#ffffff"
                 class="cls-1"
                 d="m 212.46,90.93 a 2.43,2.43 0 0 1 -4,1.32 2.9,2.9 0 0 1 -1,-2 c -0.1,-0.74 -0.12,-1.5 -0.19,-2.4 a 22.93,22.93 0 0 1 0.3,-2.39 2.33,2.33 0 0 1 2.4,-1.94 2.44,2.44 0 0 1 2.46,1.9 10.52,10.52 0 0 1 -0.06,5.54 m -2.67,-8.32 a 5.43,5.43 0 0 0 -5.5,5.7 5,5 0 0 0 3.03,4.66 6.08,6.08 0 0 0 3.19,0.66 5.2,5.2 0 0 0 5,-3.09 5.56,5.56 0 0 0 -5.59,-8"
                 id="path1222" />
              <path
                 style="fill:#ffffff"
                 class="cls-1"
                 d="m 224.27,23.67 c -0.09,0.76 -1.39,1.48 -2.14,1.33 a 1.19,1.19 0 0 1 -0.88,-1.36 2.28,2.28 0 0 1 0.33,-1 6,6 0 0 1 2.72,-1.8 23.59,23.59 0 0 1 0,2.8 m -5.55,-3.86 c 0.37,-0.12 0.7,-0.32 1.07,-0.43 A 1.42,1.42 0 0 0 220.93,18 c 0.1,-1.16 0.86,-1.59 2,-1.71 0.74,-0.08 1.16,0.18 1.29,0.91 0.13,0.73 0.13,1.53 0.19,2.29 a 0.56,0.56 0 0 1 -0.42,0.62 c -1.17,0.45 -2.36,0.89 -3.48,1.43 a 6.64,6.64 0 0 0 -1.73,1.25 2,2 0 0 0 -0.44,2.28 2,2 0 0 0 1.88,1.18 c 1.76,0.11 3.35,-0.19 4.46,-1.83 l 0.35,0.63 a 2.11,2.11 0 0 0 2.34,1.11 2.06,2.06 0 0 0 1.56,-1.78 0.52,0.52 0 0 0 -0.09,-0.42 c -0.29,-0.33 -0.51,-0.21 -0.73,0.13 a 1.83,1.83 0 0 1 -0.55,0.37 3,3 0 0 1 -0.35,-0.59 1.8,1.8 0 0 1 0,-0.57 c 0,-1.85 0,-3.7 -0.12,-5.55 a 2.16,2.16 0 0 0 -2,-2.2 6.66,6.66 0 0 0 -6.09,1.88 2.81,2.81 0 0 0 -0.92,1.82 c 0,0.57 0.14,0.73 0.66,0.56"
                 id="path1224" />
              <path
                 style="fill:#ffffff"
                 class="cls-1"
                 d="m 135.87,16.44 a 1.78,1.78 0 0 1 2,0.1 2.68,2.68 0 0 1 1.13,2.35 h -4.45 a 2.85,2.85 0 0 1 1.35,-2.45 m 0.58,10 a 6.34,6.34 0 0 0 5.39,-2.33 c -0.66,-0.64 -0.65,-0.62 -1.39,-0.21 a 4.17,4.17 0 0 1 -3.61,0.39 4.22,4.22 0 0 1 -2.33,-4.58 l 7.38,0.22 a 12.26,12.26 0 0 0 -0.21,-1.24 c -0.68,-2.35 -2.79,-3.61 -5.6,-3.29 a 5.55,5.55 0 0 0 -4.6,5.06 c -0.21,2.65 1.37,5.83 5,6"
                 id="path1226" />
              <path
                 style="fill:#ffffff"
                 class="cls-1"
                 d="m 229.75,83.44 c 1.24,0 2.18,1.14 2.17,2.7 h -4.41 a 2.56,2.56 0 0 1 2.24,-2.7 m 5.16,3.76 a 10.16,10.16 0 0 0 -0.45,-1.79 c -1,-2.2 -2.92,-3 -5.35,-2.75 a 5.46,5.46 0 0 0 -4.6,6.52 5,5 0 0 0 5.43,4.52 6.27,6.27 0 0 0 4.87,-2.33 c -0.65,-0.64 -0.64,-0.62 -1.4,-0.21 a 4.08,4.08 0 0 1 -3.66,0.36 4.22,4.22 0 0 1 -2.26,-4.52 l 7.42,0.24"
                 id="path1228" />
              <path
                 style="fill:#ffffff"
                 class="cls-1"
                 d="m 173.5,83.44 a 2.42,2.42 0 0 1 2.1,2.7 h -4.42 a 2.57,2.57 0 0 1 2.32,-2.7 m 3.63,7.7 a 2.88,2.88 0 0 1 -0.46,0.24 3.77,3.77 0 0 1 -4.06,-0.34 c -1.28,-1 -1.53,-2.45 -1.56,-4.08 l 7.4,0.23 a 4.06,4.06 0 0 0 -1.09,-3 5.15,5.15 0 0 0 -5.55,-1.27 5.47,5.47 0 0 0 -3.69,5.1 5.2,5.2 0 0 0 4.77,5.68 6.27,6.27 0 0 0 5.6,-2.3 c -0.66,-0.64 -0.66,-0.63 -1.36,-0.23"
                 id="path1230" />
              <path
                 style="fill:#ffffff"
                 class="cls-1"
                 d="m 278.52,87.58 a 24.84,24.84 0 0 0 -2.55,-0.9 14,14 0 0 1 -1.58,-0.54 1.21,1.21 0 0 1 -0.74,-1.12 1.32,1.32 0 0 1 0.83,-1.18 2.48,2.48 0 0 1 3,0.75 15.07,15.07 0 0 1 0.92,1.41 c 0.23,0.39 0.59,0.23 0.89,0.17 0.1,0 0.21,-0.33 0.19,-0.5 -0.07,-0.67 -0.16,-1.35 -0.28,-2 a 0.64,0.64 0 0 0 -0.32,-0.41 7.26,7.26 0 0 0 -5.21,-0.16 3.18,3.18 0 0 0 -1.94,3.34 3.13,3.13 0 0 0 2.27,2.67 c 0.4,0.12 0.81,0.2 1.21,0.32 a 15.56,15.56 0 0 1 2.12,0.72 1.13,1.13 0 0 1 0.37,1.85 2.13,2.13 0 0 1 -2.4,0.68 4.27,4.27 0 0 1 -2.52,-2.3 c -0.37,-0.68 -0.4,-0.68 -1.22,-0.46 0.11,0.86 0.18,1.7 0.33,2.52 a 1.08,1.08 0 0 0 0.51,0.64 8.22,8.22 0 0 0 3.36,0.65 4.91,4.91 0 0 0 2.73,-0.59 3.17,3.17 0 0 0 1.65,-2.8 2.75,2.75 0 0 0 -1.62,-2.72"
                 id="path1232" />
              <path
                 style="fill:#ffffff"
                 class="cls-1"
                 d="m 189,26.11 c 0.09,-0.71 0.07,-0.73 -0.58,-0.81 l -0.31,-0.05 c -0.9,-0.13 -1,-0.2 -1,-1.12 0,-1.12 0,-2.24 0,-3.35 V 9.37 c -0.42,0.11 -0.73,0.17 -1,0.27 -1,0.36 -2,0.74 -3,1.08 -0.26,0.08 -0.45,0.11 -0.42,0.45 0.03,0.34 0.2,0.39 0.48,0.4 1,0.06 1.19,0.19 1.24,1.23 a 2.44,2.44 0 0 1 0,0.27 v 10.59 c 0,1.41 0,1.41 -1.38,1.67 -0.59,0.11 -0.65,0.21 -0.49,0.78 z"
                 id="path1234" />
              <path
                 style="fill:#ffffff"
                 class="cls-1"
                 d="m 223.14,92.57 c -0.24,0 -0.48,-0.08 -0.72,-0.08 -0.57,0 -0.76,-0.33 -0.77,-0.84 -0.01,-0.51 0,-1 0,-1.42 q 0,-6.08 0,-12.16 v -1.4 a 3.15,3.15 0 0 0 -0.88,0.16 10.16,10.16 0 0 1 -3.35,1.17 0.52,0.52 0 0 0 -0.3,0.38 c -0.07,0.39 0.21,0.43 0.52,0.44 1,0 1.08,0.16 1.17,1.07 0,0.2 0,0.39 0,0.58 0,3.51 0,7 0,10.54 0,1.29 -0.07,1.35 -1.34,1.56 h -0.1 c -0.55,0.12 -0.61,0.23 -0.43,0.83 h 6.11 c 0.24,0 0.47,0 0.45,-0.32 -0.02,-0.32 -0.06,-0.52 -0.43,-0.52"
                 id="path1236" />
              <path
                 style="fill:#ffffff"
                 class="cls-1"
                 d="m 235.34,25.3 -0.47,-0.07 c -0.71,-0.09 -0.81,-0.2 -0.84,-0.93 -0.03,-0.73 0,-1.26 0,-1.89 0,-3.48 0,-6.95 0,-10.43 v -2.6 a 3.63,3.63 0 0 0 -0.93,0.22 9.83,9.83 0 0 1 -3.19,1.14 0.42,0.42 0 0 0 -0.3,0.68 0.86,0.86 0 0 0 0.52,0.15 c 0.88,0 1,0.16 1.11,1 a 5.65,5.65 0 0 1 0,0.58 c 0,3.53 0,7.06 0,10.59 0,1.28 -0.07,1.36 -1.34,1.56 h -0.1 c -0.56,0.12 -0.61,0.2 -0.45,0.77 h 6.52 c 0.11,-0.7 0.08,-0.74 -0.56,-0.81"
                 id="path1238" />
              <path
                 style="fill:#ffffff"
                 class="cls-1"
                 d="m 227.31,30.25 a 3.58,3.58 0 0 0 -3.91,3.53 4.2,4.2 0 0 0 3.82,4.33 4.09,4.09 0 0 0 4,-4.21 3.83,3.83 0 0 0 -3.95,-3.65"
                 id="path1240" />
              <path
                 style="fill:#ffffff"
                 class="cls-1"
                 d="m 256,92.54 -0.36,-0.07 c -0.89,-0.16 -0.9,-0.16 -0.89,-1.06 0,-2.9 0,-5.8 0.07,-8.7 0,-0.64 -0.05,-0.69 -0.69,-0.61 a 1.08,1.08 0 0 0 -0.52,0.29 5.1,5.1 0 0 1 -2.83,1.25 c -0.63,0.09 -0.63,0.08 -0.52,0.78 0.3,0 0.61,0.08 0.91,0.14 0.72,0.16 0.86,0.28 0.87,1 0,2 0,4.08 0,6.12 a 0.64,0.64 0 0 1 -0.6,0.68 l -1.38,0.2 c 0,0.29 0,0.55 0.05,0.79 h 6.5 c 0.09,-0.7 0.09,-0.7 -0.57,-0.82"
                 id="path1242" />
              <path
                 style="fill:#ffffff"
                 class="cls-1"
                 d="m 251.83,78.31 a 1.77,1.77 0 0 0 1.64,1.77 1.69,1.69 0 0 0 1.7,-1.75 1.65,1.65 0 0 0 -1.73,-1.59 1.56,1.56 0 0 0 -1.61,1.57"
                 id="path1244" />
            </g>
          </g>
        </g>
      </g>
    </g>
  </g>
</svg>
